<?xml version="1.0" encoding="utf-8"?>
<!-- Generator: Adobe Illustrator 21.0.0, SVG Export Plug-In . SVG Version: 6.00 Build 0)  -->
<svg version="1.1" id="Layer_1" xmlns="http://www.w3.org/2000/svg" xmlns:xlink="http://www.w3.org/1999/xlink" x="0px" y="0px"
	 viewBox="0 0 26 23.1111" style="enable-background:new 0 0 26 23.1111;" xml:space="preserve">
<style type="text/css">
	.st0{fill:#631B9A;}
</style>
<path id="_-e-cube-1" class="st0" d="M11.7418,22.2222h-0.027c-0.8623-0.0421-1.7215-0.1311-2.5738-0.2667
	c-0.2617-0.0396-0.4414-0.2812-0.4014-0.5398c0-0.0001,0-0.0002,0-0.0002c0.0478-0.2591,0.2969-0.4326,0.5599-0.39
	c0.8165,0.1295,1.6398,0.214,2.4659,0.2533c0.2636,0.0064,0.4721,0.2228,0.4655,0.4833
	C12.2244,22.0228,12.0054,22.2287,11.7418,22.2222L11.7418,22.2222z M14.2751,22.2189c-0.2627,0.0064-0.481-0.1987-0.4875-0.4583
	c-0.0065-0.2596,0.2011-0.4753,0.4638-0.4817c0.826-0.042,1.6492-0.1277,2.4659-0.2567c0.2626-0.044,0.5117,0.1305,0.5566,0.39
	c0.0426,0.2556-0.1325,0.4969-0.3912,0.539c-0.0023,0.0004-0.0045,0.0007-0.0068,0.0011c-0.8523,0.1354-1.7116,0.2244-2.5738,0.2667
	H14.2751z M6.7494,21.4122c-0.0468-0.0003-0.0933-0.0071-0.1383-0.02c-0.8394-0.2414-1.6546-0.5583-2.4355-0.9467
	c-0.2333-0.1152-0.3279-0.3955-0.2113-0.6261c0.0018-0.0036,0.0036-0.0071,0.0055-0.0106c0.1268-0.2314,0.4175-0.3202,0.6544-0.2
	c0.7266,0.3616,1.4854,0.6562,2.2668,0.88c0.2536,0.0732,0.399,0.3357,0.325,0.5863c-0.0004,0.0013-0.0007,0.0025-0.0012,0.0037
	C7.1504,21.2787,6.9617,21.4138,6.7494,21.4122z M19.2642,21.4089c-0.2112,0.0005-0.3983-0.1344-0.4622-0.3333
	c-0.0771-0.2484,0.0642-0.5114,0.3155-0.5876c0.0028-0.0008,0.0055-0.0016,0.0083-0.0024c0.7806-0.2243,1.5384-0.52,2.2634-0.8833
	c0.2379-0.1201,0.5294-0.0315,0.6578,0.2c0.122,0.2292,0.0327,0.5129-0.1993,0.6333c-0.0022,0.0011-0.0044,0.0023-0.0065,0.0033
	c-0.781,0.389-1.5962,0.707-2.4355,0.95C19.3597,21.4021,19.3121,21.4088,19.2642,21.4089z M2.3574,19.0622
	c-0.1341,0.0011-0.2625-0.0533-0.3542-0.15c-0.6992-0.6553-1.1108-1.5551-1.1469-2.5067c0.0019-0.2633,0.2193-0.4752,0.4857-0.4733
	l0,0c0.2644-0.0039,0.4818,0.2048,0.4857,0.4659c0,0.0002,0,0.0005,0,0.0007c0.0362,0.7126,0.3535,1.3827,0.8838,1.8667
	c0.1799,0.1866,0.1727,0.482-0.0161,0.6598C2.693,18.9277,2.6905,18.93,2.688,18.9323C2.5988,19.016,2.4804,19.0625,2.3574,19.0622z
	 M23.6561,19.0522c-0.1223,0-0.2402-0.0452-0.3306-0.1266c-0.1925-0.1694-0.2096-0.4611-0.0381-0.6514
	c0.0047-0.0052,0.0096-0.0103,0.0145-0.0153c0.5256-0.4875,0.8379-1.1585,0.8703-1.87c0.0007-0.2659,0.2167-0.4823,0.4857-0.4867
	c0.2607-0.0074,0.4782,0.1954,0.4856,0.453c0,0.0012,0.0001,0.0024,0.0001,0.0037v0.0133c-0.0254,0.9581-0.4328,1.8674-1.1334,2.53
	C23.9182,18.9984,23.7901,19.0526,23.6561,19.0522L23.6561,19.0522z M2.3371,14.6788c-0.2645,0.0025-0.481-0.2074-0.4836-0.4688
	c-0.0012-0.12,0.0439-0.2361,0.126-0.3245c0.6294-0.6296,1.3615-1.1503,2.1656-1.54c0.2369-0.123,0.5296-0.0354,0.6578,0.1967
	c0.1225,0.2275,0.0352,0.5101-0.1951,0.6312c-0.0035,0.0019-0.0071,0.0037-0.0107,0.0055c-0.7068,0.3423-1.3509,0.7986-1.9059,1.35
	C2.5992,14.625,2.471,14.6793,2.3371,14.6788L2.3371,14.6788z M23.6359,14.6455c-0.1335,0.0017-0.2618-0.0514-0.3542-0.1466
	c-0.5608-0.5466-1.2079-0.9992-1.916-1.34c-0.2336-0.1145-0.3291-0.3945-0.2132-0.6254c0.0013-0.0027,0.0026-0.0053,0.004-0.0079
	c0.1254-0.2329,0.4166-0.3234,0.6544-0.2034c0.8066,0.3865,1.5419,0.9036,2.1757,1.53c0.1818,0.1849,0.1774,0.4803-0.0097,0.6599
	c-0.0023,0.0023-0.0048,0.0046-0.0072,0.0068C23.8786,14.6012,23.7594,14.6465,23.6359,14.6455L23.6359,14.6455z M21.9323,5.4821
	c0.0005-0.4028-0.2387-0.7684-0.6106-0.9334l-8.0857-3.57c-0.1312-0.0597-0.2739-0.0904-0.4183-0.09
	c-0.1281,0-0.2551,0.0238-0.3745,0.07l-4.8507,1.86c-0.387,0.1406-0.6583,0.4878-0.6983,0.8933
	c-0.0427,0.5638,0.3853,1.055,0.9557,1.0972C7.8744,4.811,7.8988,4.812,7.9232,4.8121c0.1281,0,0.2551-0.0238,0.3745-0.07
	l4.4932-1.7233l5.5221,2.44l-5.3702,2.3933l-7.4347-3.2C5.379,4.5977,5.2402,4.5693,5.0999,4.5688
	C4.8247,4.5691,4.561,4.6783,4.3679,4.8721C4.1678,5.0841,4.06,5.3655,4.0677,5.6554v8.8534
	c0.0002,0.3991,0.2362,0.7613,0.6038,0.9267l8.0149,3.68c0.1351,0.0627,0.2826,0.0946,0.4318,0.0933
	c0.1552-0.0002,0.3084-0.0343,0.4487-0.1l7.7923-3.73c0.3481-0.1772,0.6621-0.5365,0.6498-0.9233L21.9323,5.4821z M12.0757,12.0621
	v4.5234l-6.1112-2.7333V7.1454l6.58,2.7634c0.1286,0.056,0.2677,0.0844,0.4082,0.0833c0.1454,0.0004,0.2893-0.0304,0.4217-0.09
	l6.6764-2.8129l-0.0053,6.6263l-6.0054,2.8467v-4.5c0.0063-0.5633-0.3508-1.025-0.9208-1.0312
	c-0.5701-0.0061-1.0373,0.4455-1.0435,1.0088C12.0757,12.0472,12.0757,12.0547,12.0757,12.0621L12.0757,12.0621z"/>
<path class="st0" d="M7.5,10.0556"/>
</svg>
